# xmcd
# Track frame offsets:
# 150
# 9952
# 22966
# 36730
# 46475
# 58879
# 71029
# 84615
# 94391
# 106929
# 121705
# 135033
# 145602
# 158754
# 170121
# 184149
# 196802
# 210215
# 221522
# 233261
#
# Disc length: 3277 seconds
# Revision: 0
# Processed by: cddbd v1.5.1PL0 Copyright (c) Steve Scherf et al.
# Submitted via: VisiTrax 2.9.10.228 - For more info visit www.synapsa.com
#
DISCID=080ccb14
DTITLE=Various Artist - Ultimate Doo Wop CD 1
DYEAR=1900
DGENRE=
TTITLE0=Cadillacs, The - I Wonder Why
TTITLE1=Flamingoes, The - If I Can't Have You
TTITLE2=Diablos, The - The Wind
TTITLE3=Ambassadors, The - Darling I'm Sorry
TTITLE4=Clyde McPhatter - The Way I Feel
TTITLE5=Harptones, The - Life Is But A Dream
TTITLE6=Larks, The - In My Lonely Room
TTITLE7=Platters, The - Voo Bee Ah Bee
TTITLE8=Fascinators, The - My Beauty, My Own
TTITLE9=Dominoes, The [lead Clyde McPhatter] - Harbor Lights
TTITLE10=Clovers, The - Good Lovin'
TTITLE11=Diamonds, The - Cherry
TTITLE12=Royals, The - Every Beat Of My Heart
TTITLE13=Opals, The - Heart's Desire, My
TTITLE14=Vocaleers, The - Is It A Dream
TTITLE15=Moonglows, The - Secret Love
TTITLE16=Swallows, The - Will You Be Mine
TTITLE17=Castelles, The - This Silver Ring
TTITLE18=Four Dudes, The - Just To See You Smile Again
TTITLE19=Crows, The - I Love You So
EXTD=
EXTT0=
EXTT1=
EXTT2=
EXTT3=
EXTT4=
EXTT5=
EXTT6=
EXTT7=
EXTT8=
EXTT9=
EXTT10=
EXTT11=
EXTT12=
EXTT13=
EXTT14=
EXTT15=
EXTT16=
EXTT17=
EXTT18=
EXTT19=
PLAYORDER=
